<svg width="268" height="267" viewBox="0 0 268 267" fill="none" xmlns="http://www.w3.org/2000/svg">
<path fill-rule="evenodd" clip-rule="evenodd" d="M0.5 27.8125C0.5 12.4521 12.9521 0 28.3125 0H95.0625C110.422 0 122.875 12.4521 122.875 27.8125V94.5625C122.875 109.922 110.422 122.375 95.0625 122.375H28.3125C12.9521 122.375 0.5 109.922 0.5 94.5625V27.8125ZM28.3125 22.25C25.2404 22.25 22.75 24.7404 22.75 27.8125V94.5625C22.75 97.6346 25.2404 100.125 28.3125 100.125H95.0625C98.1346 100.125 100.625 97.6346 100.625 94.5625V27.8125C100.625 24.7404 98.1346 22.25 95.0625 22.25H28.3125ZM145.125 27.8125C145.125 12.4521 157.578 0 172.937 0H239.687C255.047 0 267.5 12.4521 267.5 27.8125V94.5625C267.5 109.922 255.047 122.375 239.687 122.375H172.937C157.578 122.375 145.125 109.922 145.125 94.5625V27.8125ZM172.937 22.25C169.866 22.25 167.375 24.7404 167.375 27.8125V94.5625C167.375 97.6346 169.866 100.125 172.937 100.125H239.687C242.759 100.125 245.25 97.6346 245.25 94.5625V27.8125C245.25 24.7404 242.759 22.25 239.687 22.25H172.937ZM45 55.625C45 49.4809 49.9809 44.5 56.125 44.5H67.25C73.3941 44.5 78.375 49.4809 78.375 55.625V66.75C78.375 72.8941 73.3941 77.875 67.25 77.875H56.125C49.9809 77.875 45 72.8941 45 66.75V55.625ZM189.625 55.625C189.625 49.4809 194.606 44.5 200.75 44.5H211.875C218.019 44.5 223 49.4809 223 55.625V66.75C223 72.8941 218.019 77.875 211.875 77.875H200.75C194.606 77.875 189.625 72.8941 189.625 66.75V55.625ZM0.5 172.437C0.5 157.078 12.9521 144.625 28.3125 144.625H95.0625C110.422 144.625 122.875 157.078 122.875 172.437V239.187C122.875 254.547 110.422 267 95.0625 267H28.3125C12.9521 267 0.5 254.547 0.5 239.187V172.437ZM28.3125 166.875C25.2404 166.875 22.75 169.366 22.75 172.437V239.187C22.75 242.259 25.2404 244.75 28.3125 244.75H95.0625C98.1346 244.75 100.625 242.259 100.625 239.187V172.437C100.625 169.366 98.1346 166.875 95.0625 166.875H28.3125ZM145.125 155.75C145.125 149.606 150.106 144.625 156.25 144.625H167.375C173.519 144.625 178.5 149.606 178.5 155.75V166.875C178.5 173.019 173.519 178 167.375 178H156.25C150.106 178 145.125 173.019 145.125 166.875V155.75ZM234.125 155.75C234.125 149.606 239.106 144.625 245.25 144.625H256.375C262.519 144.625 267.5 149.606 267.5 155.75V166.875C267.5 173.019 262.519 178 256.375 178H245.25C239.106 178 234.125 173.019 234.125 166.875V155.75ZM45 200.25C45 194.106 49.9809 189.125 56.125 189.125H67.25C73.3941 189.125 78.375 194.106 78.375 200.25V211.375C78.375 217.519 73.3941 222.5 67.25 222.5H56.125C49.9809 222.5 45 217.519 45 211.375V200.25ZM189.625 200.25C189.625 194.106 194.606 189.125 200.75 189.125H211.875C218.019 189.125 223 194.106 223 200.25V211.375C223 217.519 218.019 222.5 211.875 222.5H200.75C194.606 222.5 189.625 217.519 189.625 211.375V200.25ZM145.125 244.75C145.125 238.606 150.106 233.625 156.25 233.625H167.375C173.519 233.625 178.5 238.606 178.5 244.75V255.875C178.5 262.019 173.519 267 167.375 267H156.25C150.106 267 145.125 262.019 145.125 255.875V244.75ZM234.125 244.75C234.125 238.606 239.106 233.625 245.25 233.625H256.375C262.519 233.625 267.5 238.606 267.5 244.75V255.875C267.5 262.019 262.519 267 256.375 267H245.25C239.106 267 234.125 262.019 234.125 255.875V244.75Z" fill="#2AF596"/>
</svg>
